<svg width="40" height="40" viewBox="0 0 40 40" fill="none" xmlns="http://www.w3.org/2000/svg">
<g clip-path="url(#clip0)">
<path fill-rule="evenodd" clip-rule="evenodd" d="M18.8215 18.8215C19.4724 18.1706 20.5276 18.1706 21.1785 18.8215L27.8452 25.4882C28.4961 26.139 28.4961 27.1943 27.8452 27.8452C27.1943 28.4961 26.139 28.4961 25.4882 27.8452L20 22.357L14.5119 27.8452C13.861 28.4961 12.8057 28.4961 12.1548 27.8452C11.504 27.1943 11.504 26.139 12.1548 25.4882L18.8215 18.8215Z" fill="#ED1B2E"/>
<path fill-rule="evenodd" clip-rule="evenodd" d="M20 18.3333C20.9205 18.3333 21.6667 19.0795 21.6667 20V35C21.6667 35.9205 20.9205 36.6667 20 36.6667C19.0795 36.6667 18.3333 35.9205 18.3333 35V20C18.3333 19.0795 19.0795 18.3333 20 18.3333Z" fill="#ED1B2E"/>
<path fill-rule="evenodd" clip-rule="evenodd" d="M14.4388 3.3476C16.7046 3.26412 18.9599 3.69538 21.0351 4.60896C23.1102 5.52254 24.9512 6.89467 26.4198 8.62219C27.6055 10.0171 28.5235 11.6143 29.1318 13.3333H30C32.2217 13.3348 34.3808 14.0761 36.1344 15.4402C37.8881 16.8044 39.1375 18.7136 39.6855 20.8667C40.2335 23.0198 40.0489 25.2941 39.1609 27.3306C38.2728 29.3671 36.7318 31.0499 34.7811 32.1133C33.9729 32.5539 32.9606 32.2559 32.52 31.4478C32.0794 30.6396 32.3774 29.6273 33.1856 29.1867C34.486 28.4777 35.5134 27.3558 36.1054 25.9982C36.6975 24.6405 36.8205 23.1243 36.4552 21.6889C36.0898 20.2535 35.2569 18.9807 34.0878 18.0713C32.9187 17.1618 31.4801 16.6676 29.9989 16.6667H27.9C27.1402 16.6667 26.4766 16.1528 26.2864 15.4172C25.845 13.7098 25.0223 12.1248 23.8801 10.7811C22.7379 9.43751 21.306 8.3703 19.692 7.65973C18.078 6.94917 16.3239 6.61375 14.5616 6.67868C12.7993 6.74361 11.0746 7.2072 9.51728 8.03461C7.95994 8.86202 6.61043 10.0317 5.57022 11.4557C4.53 12.8798 3.82615 14.5211 3.51157 16.2563C3.197 17.9915 3.27988 19.7755 3.754 21.474C4.22811 23.1726 5.08112 24.7416 6.2489 26.063C6.85843 26.7528 6.7934 27.806 6.10366 28.4156C5.41392 29.0251 4.36065 28.9601 3.75112 28.2703C2.24969 26.5713 1.15297 24.5541 0.543391 22.3702C-0.0661871 20.1863 -0.172754 17.8927 0.231703 15.6617C0.636159 13.4307 1.54111 11.3204 2.87853 9.48954C4.21595 7.65864 5.95103 6.15476 7.95332 5.09095C9.95562 4.02714 12.173 3.43109 14.4388 3.3476Z" fill="#ED1B2E"/>
<path fill-rule="evenodd" clip-rule="evenodd" d="M18.8215 18.8215C19.4724 18.1706 20.5276 18.1706 21.1785 18.8215L27.8452 25.4882C28.4961 26.139 28.4961 27.1943 27.8452 27.8452C27.1943 28.4961 26.139 28.4961 25.4882 27.8452L20 22.357L14.5119 27.8452C13.861 28.4961 12.8057 28.4961 12.1548 27.8452C11.504 27.1943 11.504 26.139 12.1548 25.4882L18.8215 18.8215Z" fill="#ED1B2E"/>
</g>
<defs>
<clipPath id="clip0">
<rect width="40" height="40" fill="white"/>
</clipPath>
</defs>
</svg>
